<svg width="40" height="40" viewBox="0 0 40 40" fill="none" xmlns="http://www.w3.org/2000/svg">
  <!-- Geometric D shape -->
  <path d="M8 6h8c8.284 0 15 6.716 15 15s-6.716 15-15 15H8V6z" fill="url(#gradient1)"/>
  
  <!-- Circuit pattern overlay -->
  <path d="M12 12h4v2h-4v-2zm6 0h4v2h-4v-2zm-6 4h4v2h-4v-2zm6 4h4v2h-4v-2zm-6 4h4v2h-4v-2z" fill="white" opacity="0.3"/>
  
  <!-- Subtle gear accent -->
  <circle cx="20" cy="20" r="3" fill="none" stroke="white" stroke-width="1" opacity="0.4"/>
  <path d="M20 15l1.5 1.5-1.5 1.5-1.5-1.5L20 15zm5 5l-1.5 1.5-1.5-1.5 1.5-1.5L25 20zm-5 5l-1.5-1.5 1.5-1.5 1.5 1.5L20 25zm-5-5l1.5-1.5 1.5 1.5-1.5 1.5L15 20z" fill="white" opacity="0.2"/>
  
  <defs>
    <linearGradient id="gradient1" x1="0%" y1="0%" x2="100%" y2="100%">
      <stop offset="0%" style="stop-color:#1e40af"/>
      <stop offset="100%" style="stop-color:#3b82f6"/>
    </linearGradient>
  </defs>
</svg>